<?xml version="1.0" encoding="iso-8859-1"?>
<!-- Generator: Adobe Illustrator 19.0.0, SVG Export Plug-In . SVG Version: 6.00 Build 0)  -->
<svg xmlns="http://www.w3.org/2000/svg" xmlns:xlink="http://www.w3.org/1999/xlink" version="1.1" id="Layer_1" x="0px" y="0px" viewBox="0 0 512 512" style="enable-background:new 0 0 512 512;" xml:space="preserve" width="512px" height="512px">
<g>
	<g>
		<g>
			<path d="M502,143.5H28.088c-5.523,0-10,4.478-10,10v262c0,5.522,4.477,10,10,10H502c5.523,0,10-4.478,10-10v-262     C512,147.978,507.523,143.5,502,143.5z M492,405.5H38.088v-242H492V405.5z" fill="#6a7a7a"/>
			<path d="M132,118.25c0,5.522,4.477,10,10,10s10-4.478,10-10V106.5h278v11.75c0,5.522,4.477,10,10,10s10-4.478,10-10V106.5h52     c5.523,0,10-4.478,10-10c0-5.522-4.477-10-10-10H10c-5.523,0-10,4.478-10,10c0,5.522,4.477,10,10,10h122V118.25z" fill="#6a7a7a"/>
			<path d="M62,342.627c5.523,0,10-4.478,10-10V294.5h33.155v38.127c0,5.522,4.477,10,10,10c5.523,0,10-4.478,10-10v-96.254     c0-5.522-4.477-10-10-10c-5.523,0-10,4.478-10,10V274.5H72v-38.127c0-5.522-4.477-10-10-10s-10,4.478-10,10v96.254     C52,338.149,56.477,342.627,62,342.627z" fill="#6a7a7a"/>
			<path d="M265.282,246.373h13.704v86.254c0,5.522,4.477,10,10,10s10-4.478,10-10v-86.254h13.704c5.523,0,10-4.478,10-10     c0-5.522-4.477-10-10-10h-23.704h-23.704c-5.523,0-10,4.478-10,10C255.282,241.895,259.759,246.373,265.282,246.373z" fill="#6a7a7a"/>
			<path d="M340.704,342.627c0.364,0,0.723-0.022,1.078-0.06c0.354,0.038,0.713,0.06,1.078,0.06h47.408c5.523,0,10-4.478,10-10     c0-5.522-4.477-10-10-10h-39.563v-28.846h39.563c5.523,0,10-4.478,10-10c0-5.522-4.477-10-10-10h-39.563v-27.408h39.563     c5.523,0,10-4.478,10-10c0-5.522-4.477-10-10-10H342.86c-0.364,0-0.723,0.022-1.078,0.06c-0.354-0.038-0.713-0.06-1.078-0.06     c-5.523,0-10,4.478-10,10v96.254C330.704,338.149,335.181,342.627,340.704,342.627z" fill="#6a7a7a"/>
			<path d="M420.437,342.627c0.364,0,0.723-0.022,1.077-0.06c0.354,0.038,0.713,0.06,1.077,0.06H470c5.523,0,10-4.478,10-10     c0-5.522-4.477-10-10-10h-39.563v-86.254c0-5.522-4.477-10-10-10s-10,4.478-10,10v96.254     C410.437,338.149,414.914,342.627,420.437,342.627z" fill="#6a7a7a"/>
			<path d="M195.605,341.908c31.655,0,57.409-25.753,57.409-57.408c0-31.655-25.753-57.408-57.409-57.408     c-31.655,0-57.408,25.753-57.408,57.408C138.197,316.155,163.951,341.908,195.605,341.908z M195.605,247.092     c20.627,0,37.409,16.781,37.409,37.408s-16.781,37.408-37.409,37.408c-20.627,0-37.408-16.781-37.408-37.408     C158.197,263.873,174.979,247.092,195.605,247.092z" fill="#6a7a7a"/>
			<path d="M376,373.5H63c-5.523,0-10,4.478-10,10c0,5.522,4.477,10,10,10h313c5.523,0,10-4.478,10-10     C386,377.978,381.523,373.5,376,373.5z" fill="#6a7a7a"/>
			<path d="M413,393.5h53c5.523,0,10-4.478,10-10c0-5.522-4.477-10-10-10h-53c-5.523,0-10,4.478-10,10     C403,389.022,407.477,393.5,413,393.5z" fill="#6a7a7a"/>
		</g>
	</g>
</g>
<g>
</g>
<g>
</g>
<g>
</g>
<g>
</g>
<g>
</g>
<g>
</g>
<g>
</g>
<g>
</g>
<g>
</g>
<g>
</g>
<g>
</g>
<g>
</g>
<g>
</g>
<g>
</g>
<g>
</g>
</svg>
